<?xml version="1.0" encoding="UTF-8"?>
<svg version="1.1" viewBox="0 0 2048 1008" width="400" height="197" xmlns="http://www.w3.org/2000/svg">
<path transform="translate(1544,96)" d="m0 0h51l33 1 1 1v51l28 4 4 2 1 126 52 2 35 2 9 2 4 4 1 4v155l-4 6-5 4-4 1-23-1-106-9-5-1 6 16 3 11 22 3 140 21 39 6 4 2v24l-1 1h-72l9 42 21 104 19 92 16 80 4 4 25 13 22 12 25 13 46 25v2h-753l-9-1-13-13-8-7-7-7-8-7-15-14-5 1-11 9-20 12-16 8-20 8-26 7-23 4-26 2-26-1-27-4-26-7-25-10-19-10-15-10-14-11-15-14-7-8-13-17-11-19-8-19-6-21-3-21v-23l3-20 5-19 6-15 8-16 10-16 9-11 12-13 11-10 13-10 14-8 5-1-3-5-6-8-4-12-1-7v-24l3-18 6-25 9-28v-1l-11-1-2-8-6 7-10 13-12 14-10 10-13 9-12 6-11 3h-14l-10-3-8-6-7-8-5-12-1-4v-17l4-20 6-19 10-25 11-23 14-24 11-18-18 4-19 7-11 4-14 9 1 8v10l-4 10-6 9-13 13-11 9-16 12-15 10-20 12-15 8-26 11-15 4-8 1h-9l-13-3-8-6-7-6 3 10 8 59 6 57 5 60 4 63 3 68 2 65v41l-4 3 2 9 4 6 12 9 4 6-1 3h-58l-4-3-2 3h-30l-1-24v-14h-12l-2-2-1-18-3-185-2-151v-33h-12l-1 18-12 204-9 154-1 13-3 2-8 2 3 15 5 5 7 5 3 5v4h-43l-10-2-5-5-4 1-3 1-23-4-1-4 4-22-22-1v-12l6-93 7-90 4-43v-7l-13 48-7 28-2 4-4-1-5-4-4-4-6 8h-6l-3-3v-3l-7 3-4-2-3-7-8-5-1-2v-7l6-17 12-24 10-25 3-5 3-12v-7l-10-5-5-5-3-9-1-6v-57l3-44 6-48 7-39 8-36 8-26 8-20 8-14 10-10 15-8 10-4v-16l5-23 1-13-10-5-3-5v-5l5-6 9-3 6-24 4-8-1-4-8-7 1-6 5-4 12-5 24-6 12-2h33l10 2 12 5 9 6 7 8 4 9v7l-4 5-8 4-7 2 5 6 10 7 17 9 8 7 8 13 4 13v27l-2 18v10l5 5 17 9 7 8 4 8 1 4v18l-4 12-3 6 1 7 5 19 1 9 5-3 7-8 11-11 7-8 18-18 11-9 11-8 14-7 8-2h11l10 4 5-1 9-6 8-5 4-13 8-10 9-7 16-8 8-1 5 2 6-1 9-4 25-10 5 1 1 6-3 5-8 7-3 3 2 6 2 11 1 3 1 11 10-8 10-7 15-8 15-5 30-7 14-2 2-7 5-8 2-7h-16l-13 4-10 2h-7l1-7-17 1-4-6-4-15-1-11 2-16 5-14 7-12 11-12 14-9 10-4 9-2h23l13 4 10 5 9 7 11 11 7 12 5 15 1 5v21l-4 14-3 5-9 6-8 1h-13l-3-5h-3l-1 8 26 2 1 2h4l2-4 6-1 20 8 26 12 2 1 2 10 16 8 12 9 11 10 9 14 5 11 7 24 3 12 5-1 16-10 19-10 11-3h24l11 4 8 6 6 9 2 6v26l-5 41-5 30v8l9 7 6 10 4 12 1 7v12l-3 19-6 20-21 57-4 10 1 7 8 14 8 20 5 17 3 16 2 21v13l87-1 18-71 31-124 14-55 2-8-9-1-44-8-3-1v-27h131l28 1 32 4 80 12 10 2-5-14-2-8-14-2-103-9-13-2-4-2-3-6v-84l-9-3-49-17-2-7v-32l-10-2-3-3-1-2v-138l1-1h12l1-2v-29l3-1 91 15 77 13 5 1 1-37zm-178 395-3 8-18 71-37 148-7 27 6 1h161l1-4-26-155-14-83-3-2zm84 16 1 12 29 173 8 49 2 5h106l2-7 23-127 14-75v-3l-43-1-81-15-59-11zm206 27-2 6-13 71-15 82-9 49 1 4 19 10 27 14 22 12 23 12 22 12 23 12 22 12 21 12h2l-5-26-20-100-14-69-15-73-8-39-1-1zm-545 41-21 6-13 4 1 2 21 5h6l5-8 4-7v-2zm-787 46m4 1v1h5v-1zm6 1 4 1zm5 1 4 1zm5 1 4 1z" fill="#2D6859"/>
<path transform="translate(1544,96)" d="m0 0h51l33 1 1 1v51l28 4 4 2 1 126 52 2 35 2 9 2 4 4 1 4v155l-4 6-5 4-4 1-23-1-106-9-5-1 6 16 3 11 22 3 140 21 39 6 4 2v24l-1 1h-72l9 42 21 104 19 92 16 80 4 4 25 13 22 12 25 13 46 25v2h-753l-9-1-13-13-8-7-7-7-8-7-15-14 2-4 9-10 9-11 13-18 9-15 9-20 6-20 4-21 1-7 87-1 18-71 31-124 14-55 2-8-9-1-44-8-3-1v-27h131l28 1 32 4 80 12 10 2-5-14-2-8-14-2-103-9-13-2-4-2-3-6v-84l-9-3-49-17-2-7v-32l-10-2-3-3-1-2v-138l1-1h12l1-2v-29l3-1 91 15 77 13 5 1 1-37zm-178 395-3 8-18 71-37 148-7 27 6 1h161l1-4-26-155-14-83-3-2zm84 16 1 12 29 173 8 49 2 5h106l2-7 23-127 14-75v-3l-43-1-81-15-59-11zm206 27-2 6-13 71-15 82-9 49 1 4 19 10 27 14 22 12 23 12 22 12 23 12 22 12 21 12h2l-5-26-20-100-14-69-15-73-8-39-1-1z" fill="#54A090"/>
<path transform="translate(448,129)" d="m0 0h33l10 2 12 5 9 6 7 8 4 9v7l-4 5-8 4-7 2 5 6 10 7 17 9 8 7 8 13 4 13v27l-2 18v10l5 5 17 9 7 8 4 8 1 4v18l-4 12-3 6 1 7 5 19 1 9 5-3 7-8 11-11 7-8 18-18 11-9 11-8 14-7 8-2h11l10 4 5-1 9-6 5-3 5 1 2 5h2v3h2l1 4h2v3h2v3h2v3h2l6 11 1 4-16 10 1 8v10l-4 10-6 9-13 13-11 9-16 12-15 10-20 12-15 8-26 11-15 4-8 1h-9l-13-3-8-6-7-6 3 10 8 59 6 57 5 60 4 63 3 68 2 65v41l-4 3 2 9 4 6 12 9 4 6-1 3h-58l-4-3-2 3h-30l-1-24v-14h-12l-2-2-1-18-3-185-2-151v-33h-12l-1 18-12 204-9 154-1 13-3 2-8 2 3 15 5 5 7 5 3 5v4h-43l-10-2-5-5-4 1-3 1-23-4-1-4 4-22-22-1v-12l6-93 7-90 4-43v-7l-13 48-7 28-2 4-4-1-5-4-4-4-6 8h-6l-3-3v-3l-7 3-4-2-3-7-8-5-1-2v-7l6-17 12-24 10-25 3-5 3-12v-7l-10-5-5-5-3-9-1-6v-57l3-44 6-48 7-39 8-36 8-26 8-20 8-14 10-10 15-8 10-4v-16l5-23 1-13-10-5-3-5v-5l5-6 9-3 6-24 4-8-1-4-8-7 1-6 5-4 12-5 24-6zm-124 492m4 1v1h5v-1zm6 1 4 1zm5 1 4 1zm5 1 4 1z"/>
<path transform="translate(1469,744)" d="m0 0h1l6 30 2 4 7 2 6-3v-14l-1-17h106v10l-10 59-13 70v9l4 1h8l3-8 8-38 15-80 5-22 2-2 19 10 27 14 22 12 23 12 22 12 23 12 22 12 23 13-1-5 2 2 5 20 7 32 4 4 10-1v-13l-3-19v-7l17 8 22 12 34 18 28 15 20 11v2h-753l-9-1-13-13-8-7-7-7-8-7-15-14 2-4 9-10 9-11 13-18 9-15 9-20 6-20 4-21 1-7h87v9l-5 24v7l6 3 7-1 3-10 10-33h167z" fill="#FDF8F1"/>
<path transform="translate(1073,586)" d="m0 0 8 1 24 5-8 16-10 19-13 23-14 25-30 54-2 5v8l8 12 10 12v4l-8 7-4 8-3 33-2 23v18l3 6 7 4 6-1 10-6 10-10 9-13 10-17 13-27 2-2 8-1 6-12 9-24 21-57 10-26 12-30 4 5 8 15 9 25 5 24 2 21v20l-5 25-7 21-8 17-12 19-10 13-12 14-8 9-6 3-13 10-19 11-16 8-21 8-28 7-18 3-26 2-26-1-27-4-26-7-25-10-19-10-15-10-14-11-15-14-7-8-13-17-11-19-8-19-6-21-3-21v-23l3-20 5-19 6-15 8-16 10-16 9-11 12-13 11-10 13-10 14-8 5-1 1-2 9 4 14 3 13 1h119l22-1 20-5z" fill="#79CEBC"/>
<path transform="translate(377,360)" d="m0 0h5v79l8 1h122l25-1-4-14-10-49v-8l5 5 6 26 8 40 2 12 4 10h-2l3 10 8 59 6 57 5 60 4 63 3 68 2 65v41l-4 3 2 9 4 6 12 9 4 6-1 3h-58l-4-3-2 3h-30l-1-24v-14h-12l-2-2-1-18-3-185-2-151v-33h-12l-1 18-12 204-9 154-1 13-3 2-8 2 3 15 5 5 7 5 3 5v4h-43l-10-2-5-5-4 1-3 1-23-4-1-4 4-22-22-1v-12l6-93 7-90 4-43v-7l-13 48-7 28-2 4-4-1-5-4-4-4-6 8h-6l-3-3v-3l-7 3-4-2-3-7-8-5-1-2v-7l6-17 12-24 10-25 3-5 2-4v2l10 1 22 4 10 1 1-13 2-7 11-3 6-10 4-11 2-9 2-21v-53l-1-39v-15h-9l-5-3-1-3v-23l1-45zm-53 261m4 1v1h5v-1zm6 1 4 1zm5 1 4 1zm5 1 4 1z" fill="#549F90"/>
<path transform="translate(1544,96)" d="m0 0h51l33 1 1 1v51l28 4 4 2 1 126 1 1v143l-9-1-18-6-5-3v30h-7l-40-15-39-14-3-2-1-4v-25l-20-8-19-6-7-3-15-5-17-6-33-11v-2h-4v-2l-9-3-49-17-2-7v-32l-10-2-3-3-1-2v-138l1-1h12l1-2v-29l3-1 91 15 77 13 5 1 1-37z" fill="#E0D0C5"/>
<path transform="translate(1139,354)" d="m0 0h24l11 4 8 6 6 9 2 6v26l-5 41-5 30v8l9 7 6 10 4 12 1 7v12l-3 19-6 20-21 57-4 10-2 10-6 15-16 41-17 47-10 26-6 14-2 2-8 1-8 16-12 23-8 12-8 10-9 9-12 6-5-1-7-5-2-5v-18l4-48 2-11 6-8 4-4h2l-2-5-9-11-8-12v-8l8-16 16-29 10-18 14-25 9-16 16-29 14-26-20 6-15 4-23 7-13 3-22 1h-119l-18-2-12-3-6-3-8-9-4-8-3-14v-24l3-18 6-25 9-28 84-1 48-1 3 4 7 35 6 16 7 12 8 10 10 7 10 4h15l12-5 9-6 7-9 7-14 2-6 2-25v-13l-6-37-9-43-1-10-2-1 8-4 20-12 15-7z" fill="#3C74B0"/>
<path transform="translate(1663,282)" d="m0 0h29l57 3 9 2 4 4 1 4v155l-4 6-5 4-4 1-23-1-106-9-5-3-19-2-48-1-103-9-13-2-4-2-3-6v-82h4v2l9 2 24 8 20 7 18 6 10 4 10 3 10 4 11 5v29l6 2 55 20 21 8 7 1v-30l5 2 21 7 6 1z" fill="#000001"/>
<path transform="translate(1353,137)" d="m0 0h10l15 4 74 16 28 7 23 6v153l-1 1-9-1-44-13-26-8-44-13-13-3v-3l-10-2-3-3-1-2v-138z" fill="#8CC6DC"/>
<path transform="translate(1559,445)" d="m0 0h38l19 2 4 2-4 1 6 16 3 11 22 3 140 21 30 5-2 2h-199l-31-2-27-4-43-9-146-27-55-11-11-3v-1l93-1h24l28 1 32 4 80 12 10 2-5-14-2-8z" fill="#2D6859"/>
<path transform="translate(901,151)" d="m0 0h23l13 4 10 5 9 7 11 11 7 12 5 15 1 5v21l-4 14-3 5-9 6-8 1h-13l-3-5h-3l-1 8 13 1v1h-38l3-10h-16l-13 4-10 2h-7l1-7-17 1-4-6-4-15-1-11 2-16 5-14 7-12 11-12 14-9 10-4z" fill="#B5877B"/>
<path transform="translate(1016,277)" d="m0 0 7 3 2 10 3 3 10 26 10 23 9 23v6l-19 6-33 8-7-3-10-7-6-5-6-9v-2h-2l-4-6-13-12-5-6v-2h-2l-3-5 1-9 5-11 4-6 1-6h7l5 1-3-6v-8l2-3 9 2 16 11 5 5 11 9v2h2l-2-5v-19z" fill="#B7877B"/>
<path transform="translate(444,173)" d="m0 0 12 3 10 4v2l4 1 9 5 9 4 7 2 16 1 8 6 2 3v6l-4 5-5 4h-9l-4-1-3 2-2 4-5 2v2l-10 6-16 6h-3l2 8 1 15 10 1-1 4-9 6-12 4h-8l-16-5-7-6v-3h16v-10l2-13-10-3-13-7-11-9-2-3h-10l-10-5-3-5v-5l5-6 9-3 2-2 9-1 18-6 14-7z" fill="#B5867B"/>
<path transform="translate(1545,352)" d="m0 0h7l31 6 39 9 7 3 1 35 2 10-1 30h-7l-40-15-39-14-3-2-1-4v-25l-8-3 3-2h7l1-27z" fill="#C8B5AB"/>
<path transform="translate(1601,97)" d="m0 0h27l1 1 1 53v20l-1 9-68-12-15-3-2-1v-29l1-18 3-9 4-6 9-4z" fill="#C9B6AC"/>
<path transform="translate(1544,181)" d="m0 0 11 1 66 11 9 3-1 68-9-1-72-14-4-2z" fill="#C9B6AC"/>
<path transform="translate(448,129)" d="m0 0h33l10 2 12 5 9 6 7 8 4 9v7l-4 5-8 4-8 3-39 1-2 1-12-5-6-1-11 8-16 7-17 5h-5l1-13 4-12 3-6-1-4-8-7 1-6 5-4 12-5 24-6z" fill="#2D685A"/>
<path transform="translate(1544,265)" d="m0 0 10 1 39 8 35 8 1 1v64l-8-1-29-7-32-7-13-4-3-3z" fill="#C9B6AC"/>
<path transform="translate(901,151)" d="m0 0h23l13 4 10 5 9 7 11 11 7 12 5 15 1 5v21l-4 14-3 5-6 3-4-6-2-1 1-8 5-6 4-10v-23l-4-10-5-6-14 3h-31l-20-3-3-1v9l-4 12-7 9-7 4-13 5-5 6v7l8 7v2l5 1-1 6-18 2-4-6-4-15-1-11 2-16 5-14 7-12 11-12 14-9 10-4z" fill="#010203"/>
<path transform="translate(813,258)" d="m0 0 5 1 1 6-3 5-8 7-3 3 2 6 2 11 1 3 1 11h2v10l-6 7-14 8-10 1-13 4-21 7-3-1-6-10v-3h-2v-3h-2v-3h-2v-3h-2l-1-4h-2v-3h-2l-3-5-2-2 3-9 4-8 8-9 10-7 13-6 8-1 5 2 6-1 9-4z" fill="#B9887B"/>
<path transform="translate(937,300)" d="m0 0h6l1 1-1 7-7 9-9 6-4 2-1 3 3 5-1 6v19l-3 19-5 7-7 5-8-1-2-2-4 1-6 8-4-2-14-11-19-13-5-5 1-7 11-23 7-10 9-8 22-7 24-6z" fill="#B9887B"/>
<path transform="translate(1396,184)" d="m0 0 6 2 16 11 12 8 4 3-3 16-1 14 1 29 2 17v11l-7-1-35-11-21-7v-10l4-16 17-51 4-14z" fill="#FDFDFC"/>
<path transform="translate(320,617)" d="m0 0 1 2 10 1 5 1v2l9 1 3 1 15 2v12h-2l-13 48-7 28-2 4-4-1-5-4-4-4-6 8h-6l-3-3v-3l-7 3-4-2-3-7-8-5-1-2v-7l6-17 12-24 10-25 3-5zm4 4m4 1v1h5v-1z" fill="#B9897C"/>
<path transform="translate(1736,285)" d="m0 0h13l9 2 4 4 1 4v155l-4 6-5 4-4 1h-9l-6-1z" fill="#BBB0AC"/>
<path transform="translate(1046,769)" d="m0 0 4 2 16 11 17 8 7 2 8 1-2 6-12 25-12 20-9 11-9 9-12 6-5-1-7-5-2-5v-18l4-48 2-11 6-8z" fill="#E27D6D"/>
<path transform="translate(971,259)" d="m0 0 7 1 26 11 12 6-4 7-1 1v19l1 5h-2v-2l-4-2-12-10v-2l-5-2-11-8-9-2-1 2v8l3 7-13-2v6l-5 7-5 13v6l2 5h2l1 4 3 1 7 8 10 9 1 4h2l6 9v2h2v6l-2 2-9 1-7-2-13-1-21-4-6-3v-6l10-23 8-19 5-8 6-17 5-10 6-18 3-8z"/>
<path transform="translate(1559,445)" d="m0 0h38l19 2 4 2-4 1 6 16 3 11 4 1 1 6v9l-10 2h-64l-6-2-2-2v-7l4-4 12-2h7l-2-7-1-2h2l-5-14-2-8z" fill="#A7B0B7"/>
<path transform="translate(499,883)" d="m0 0h37l38 2-1 5 4 10 10 8 6 5 2 6-1 1h-58l-4-3-2 3h-30l-1-24z" fill="#BAB0AC"/>
<path transform="translate(1370,160)" d="m0 0h2l7 8 15 12-1 10-8 25-10 30-5 20-4 9-8-1v-99l5-4z" fill="#FCFCFB"/>
<path transform="translate(1618,746)" d="m0 0 12 5 22 12 27 14 22 12 23 12 22 12 32 17 19 11-1 10-2 3h-3l-6-8-10-6-17-9-14-7-34-21-37-18-22-12-17-8-13-2-4-6v-9z" fill="#FEFDFC"/>
<path transform="translate(1372,153)" d="m0 0 9 1 16 3 15 4 8 1 5 2 8 1 1 1 13 2 4 3-4 7-6 13-4 12-4 2-5-4-10-5-4-4-8-4-4-3v-2l-4-1-1-2v-9l1-11-3 15-1 2-5-2-13-12-5-6z" fill="#FBFBFA"/>
<path transform="translate(846,451)" d="m0 0 6 1-1 6-11 14-12 14-10 10-13 9-12 6-11 3h-14l-10-3-8-6-7-8-1-5 3 1 2 4 6-1 7 1v-2l6-3 4 1 2 2h6l4-2 13-2 1-4 4-3 9-1 4-8 5-4 6 4 4-1 4-8 10-7 2-5z" fill="#285B4E"/>
<path transform="translate(1436,211)" d="m0 0 5 2 14 12v77l-10-2-7-3-3-9-1-19v-42z" fill="#FDFDFC"/>
<path transform="translate(1353,137)" d="m0 0h10l15 4 74 16 28 7 23 6v5l-2-2 1-2-12-2-14-3-1 6-11-1-10-1h-6l-6-2-8-1-1-1-12-2-1-1-17-3-9-3-40-10-2-5z" fill="#3E77B0"/>
<path transform="translate(971,259)" d="m0 0 7 1 26 11 12 6-4 7-1 1v19l1 5h-2v-2l-4-2-12-10v-2l-5-2-11-8-9-2-1 2v8l3 7-13-2v6l-5 7-2-1 4-12 5-10 6-18 3-8z" fill="#010303"/>
<path transform="translate(373,883)" d="m0 0h26l28 2v1l-9 1-6 3 6 2v1l-10-1-11-5-1-2h-13l-1 8-1 1 9 2 1 2-6 2v2l2 1v2l8 1 16 3 38 4 2 3v4h-43l-10-2-5-5-4 1-3 1-23-4-1-4 4-22h-9v-1z" fill="#A6AFB7"/>
<path transform="translate(383,884)" d="m0 0h14l1 3 10 4 7 1-5-2v-1l6-2 2-1h14l2 7 3 10 11 8v2l-15-1-29-3-17-4v-2l-3-1 2-4 3-1-9-2 3-9-2-1z" fill="#BAB0AC"/>
<path transform="translate(1824,856)" d="m0 0 6 2 34 18 32 17 28 15 20 11v2h-34l-26-1v-1l12-2 2-1 1-5-3-6-10-7-12-7-12-8-10-8-13-8-9-6h-5z" fill="#FEFDFC"/>
<path transform="translate(1541,384)" d="m0 0h2l1 4 1 23 20 8 11 4 21 4 8-2 9-5 6-5 8-2 3 1v31h-7l-40-15-39-14-3-2-1-4z" fill="#BBB0AC"/>
<path transform="translate(1147,862)" d="m0 0h1v12l5 9 7 8 8 6 5 8 16 11 11 2 38-1 149 1 15 1v1l-211 1-9-1-13-13-8-7-7-7-8-7-15-14 2-4 5-4z" fill="#FEFEFD"/>
<path transform="translate(1468,208)" d="m0 0 11 3 17 6v31l-7-1-19-7-2-1z" fill="#FEFEFD"/>
<path transform="translate(1468,241)" d="m0 0 26 10 2 1v26l-1 4-11-3-16-6z" fill="#FEFEFD"/>
<path transform="translate(1468,276)" d="m0 0 11 3 15 6 1 1 1 9v20l-9-1-17-6-2-1z" fill="#FEFEFD"/>
<path transform="translate(1468,176)" d="m0 0 18 4 10 3v31l-10-2-18-6z" fill="#FEFEFD"/>
<path transform="translate(403,163)" d="m0 0 9 2 27 8 2 1-2 4-9 5-13 6-17 5h-5l1-13 4-12z" fill="#010202"/>
<path transform="translate(377,360)" d="m0 0h5v79l8 1h122l23-1 3-1 1 3-9 1-108 1-30 1-1 15h-1v-15h-9l-5-3-1-3v-23l1-45z" fill="#4F978C"/>
<path transform="translate(1751,916)" d="m0 0h56l26 2 39 1v1h-300v-1l60-1h22l27-1z" fill="#FEFEFD"/>
<path transform="translate(1736,285)" d="m0 0h1l1 141 3 13h3l5-14 3 1 1 5-2 1 2 5 2 21-5 3h-9l-6-1z" fill="#87A1AE"/>
<path transform="translate(501,913)" d="m0 0h92l2 6-1 1h-58l-4-3-2 3h-29z" fill="#010202"/>
<path transform="translate(364,903)" d="m0 0 10 1 32 7 15 2 29 2 1 5h-43l-10-2-5-5-4 1-3 1-23-4-1-4z" fill="#04090A"/>
<path transform="translate(1452,171)" d="m0 0 3 1 1 17-1 32-4-1-13-10v-8l4-9 7-17z" fill="#FBFBFA"/>
<path transform="translate(1368,154)" d="m0 0h2l9 11 10 9 5 3 3-17 2-1-1 21v2l4 1 4 4 9 5v2l5 2 9 5 4 3 3-1 6-17 4-8 3-5 1 3-7 17-4 9v8l13 10 2 3-5-2-12-10-10-7-24-16-5-3h-2l-4 14-17 51-6 24h-1v-7l5-18 8-26 8-23 4-14v-6l-10-8-10-9-1-3-5 5-4 6-3-1 4-6 3-4z" fill="#407780"/>
<path transform="translate(925,369)" d="m0 0 28 6 13 1 7 2 9-1 2-6 3 2-1 5-3 3-4 1-2 5-4 1-2-2-11-4-3-2-4 3h-7l-1-4h-3v2h-2v-3l-6 2-3-2v-2l-4-1v-2h-2v3h2v2h-2l1 7-2 3h-7l1-3h3l1-11z" fill="#275A4D"/>
<path transform="translate(458,213)" d="m0 0h7l3 1 1 3-4 8-5 4h-11l-11-3-4-4-1-2v-6z" fill="#E37D6D"/>
<path transform="translate(966,265)" d="m0 0 1 3-7 21-5 9-5 15-6 10h-1l-1-9 4-2 1-5v-19l-2-4 1-8 3-1 14-1 1-8z" fill="#275A4D"/>
<path transform="translate(927,322)" d="m0 0h5l-3 8 5-1 1-2 6 1-3 9-8 19-3 7-2 8-3 6-1-4 2-15v-19l1-6-3-6 4-4z" fill="#285C53"/>
<path transform="translate(1541,384)" d="m0 0h2l1 4 1 23 20 8 33 12 25 10 4 1 1-9h2v-18h1v30h-7l-40-15-39-14-3-2-1-4z" fill="#8F7D79"/>
<path transform="translate(1372,153)" d="m0 0 9 1 16 3 5 1-2 1-1 3-1-2-3 15-1 2-5-2-13-12-5-6z" fill="#F7F8F6"/>
<path transform="translate(1617,745)" d="m0 0 1 3-5 25-14 74-8 40-3 9-5 3-6-1-6-4-1-5 5-26h1l-1 11-2 11v9l4 1h8l3-8 8-38 15-80 5-22z" fill="#CCC3BC"/>
<path transform="translate(523,368)" d="m0 0 5 5 6 26 5 25-1 14-2-1-8-36-5-25z" fill="#488A86"/>
<path transform="translate(878,239)" d="m0 0 5 1 8 7 4 4v2l-10 3-10 2h-7l1-7h-6v-1h7v-6l-1-2z" fill="#DA7C6E"/>
<path transform="translate(1571,473)" d="m0 0h1v6l-2 1-17 2-2 1v7l1 1 76 1-1-14h2l1 6v9l-10 2h-64l-6-2-2-2v-7l4-4 12-2h7z" fill="#4D9398"/>
<path transform="translate(561,909)" d="m0 0h15l12 1 4 2v1h-91v7h-1v-9l1-1z" fill="#3D7A84"/>
<path transform="translate(1798,837)" d="m0 0 2 2 5 20 7 32 4 4 10-1v-13l-3-19v-7h1l4 24 1 4v12l-4 3-3 1h-8l-5-4-3-10-6-30-2-9z" fill="#C6C4BE"/>
<path transform="translate(1434,209)" d="m0 0 3 2-2 16v53h-1l-1-5v9h-1l-2-17-1-29 2-21z" fill="#A8B4B6"/>
<path transform="translate(953,245)" d="m0 0h8l5 5 1 4-3 2-8 1h-13l-2-3v-6z" fill="#DE7D6F"/>
<path transform="translate(364,900)" d="m0 0h8l32 8 45 5 1 2h-16l-22-2-48-10-1 2z" fill="#3B777E"/>
<path transform="translate(537,438)" d="m0 0 2 3-9 1-108 1-30 1-1 15h-1v-15h-9v-1h9v-2l122-1 23-1z" fill="#285C4F"/>
<path transform="translate(1027,292)" d="m0 0 9 3 4 7 3 9-1 13-3-1-8-19z" fill="#295D55"/>
<path transform="translate(1449,173)" d="m0 0 1 3-7 17-4 9v8l13 10 2 3-5-2-12-10-10-7-24-16-7-4 2-4v2l4 1 4 4 9 5v2l5 2 9 5 4 3 3-1 6-17 4-8z" fill="#5B8B9A"/>
<path transform="translate(1559,445)" d="m0 0h38l19 2 4 2-6 3-14-2-31-2-10-2z" fill="#3A7775"/>
<path transform="translate(949,208)" d="m0 0h1v8l-5 19-5 13 1 4-3-1v-6h-8l-10-9-6-9-3-6 1-4 5 8 5 9 7 7 10 3 1-6 3-8z" fill="#346A8A"/>
<path transform="translate(377,360)" d="m0 0h5v79l4 1h-5l-1-9v-52l-2-1-1 18h-1v-26z" fill="#336A80"/>
<path transform="translate(505,907)" d="m0 0h65l13 2v1h-82l1-2z" fill="#A7B0B8"/>
<path transform="translate(1354,149)" d="m0 0h4v2h6l3 2 1 7-6 8-4 2-3-17z" fill="#FDFDFC"/>
<path transform="translate(1302,745)" d="m0 0 39 1v1l-18 2-11 3-9 6-2-1v-7z" fill="#FEFDFC"/>
<path transform="translate(1597,843)" d="m0 0h1v9l-8 39-3 6-4 2-6-1-6-4-1-5 5-26h1l-1 11-2 11v9l4 1h8l3-8 8-38z" fill="#CFC2BA"/>
<path transform="translate(1368,154)" d="m0 0h2l9 11 10 9 5 3 3-17 2-1-1 12-1 9-7-2-14-12-4-4v-2l-5 5-4 6-3-1 4-6 3-4z" fill="#6B7D88"/>
<path transform="translate(1279,749)" d="m0 0h1l-1 11-4 19v7l6 3 7-1 3-10 7-22 1 4-7 24-4 6-2 1h-7l-6-3-1-1v-8l6-27z" fill="#CDC2BC"/>
<path transform="translate(1565,452)" d="m0 0h2v4l5 1 5 4 1 5-1 3-1 7h-3l-5-6 2-1-5-14z" fill="#B8B0AC"/>
<path transform="translate(1469,744)" d="m0 0h1l6 30 2 4 7 2 6-3v-14l-1-17h1l3 23v9l-8 4-8-1-5-6-4-21z" fill="#CAC3BD"/>
<path transform="translate(1562,746)" d="m0 0h34l-2 10-3 1v-2l-4-2-12-5-13-1z" fill="#FEFDFC"/>
<path transform="translate(1613,97)" d="m0 0h15l1 1v43h-1l-2-29-4-11v-2l-9-1z" fill="#E1D1C6"/>
<path transform="translate(397,883)" d="m0 0 30 2v1l-9 1-6 3 6 2v1l-10-1-11-5-1-2z" fill="#A7B0B8"/>
<path transform="translate(1616,454)" d="m0 0h2l7 21v2l3 1-5 5-1-3 1-1-5-2-3-4v-10l2 3v-7z" fill="#BEB2AE"/>
<path transform="translate(739,456)" d="m0 0h2v14l2 15v3l-3 1-3-8v-17z" fill="#2A5F51"/>
<path transform="translate(392,498)" d="m0 0h1l1 27v27l-3 20h-1l1-21z" fill="#2A6254"/>
<path transform="translate(410,909)" d="m0 0 31 3 8 1 1 2h-16l-22-2z" fill="#3D7A83"/>
<path transform="translate(1551,482)" d="m0 0h17l2 1-1 3-14 4-4-1z" fill="#BAB0AC"/>
<path transform="translate(1433,234)" d="m0 0h1l1 46h-1l-1-5v9h-1l-2-17v-10l2-2z" fill="#BFBFBC"/>
<path transform="translate(461,175)" d="m0 0h26l15 2v1l-38 1-2 1-4-2v-2z" fill="#275A50"/>
<path transform="translate(1469,206)" d="m0 0 11 3 13 4v2l3 1-8-1-20-7v31h-1v-32z" fill="#80CACB"/>
<path transform="translate(366,885)" d="m0 0 2 2 1 5h3l1 1-1-6 7 2-4 6-5 3h-4l-2 2z" fill="#BCB1AD"/>
<path transform="translate(1630,415)" d="m0 0h1v30h-7l-3-1v-3l6 1 1-9h2z" fill="#AC857B"/>
<path transform="translate(1737,285)" d="m0 0h12l9 2 4 4 1 4v22h-1l-2-24-3-4-4-1-14-1-1 2z" fill="#E1D1C6"/>
<path transform="translate(1354,147)" d="m0 0 8 1 28 7v1l-18-2-2 2v-2h-2l-1 2-1-3-8-2v-2h-4z" fill="#A0CACB"/>
<path transform="translate(911,217)" d="m0 0 4 4 6 12 8 8v2l-4-2-7-7-7-13z" fill="#306578"/>
<path transform="translate(1476,166)" d="m0 0 10 1 4 2-9 2v2h-13l-3-2 10 1z" fill="#79CFBD"/>
<path transform="translate(885,241)" d="m0 0 6 2 9 5 6 2v1l-11 1-5-5-5-4z" fill="#040A0A"/>
<path transform="translate(1575,863)" d="m0 0h1l-1 11-2 11v9l12 2v2l-5 1-8-4-2-3 2-14z" fill="#CCC2BD"/>
<path transform="translate(364,900)" d="m0 0h8l15 4v1h-13l-10-2-1 2z" fill="#3A7779"/>
<path transform="translate(420,264)" d="m0 0h15v1l-7 2 4 5 2 2-7-1-7-6z" fill="#A47775"/>
<path transform="translate(923,339)" d="m0 0h1l1 8 1 1v9l-2 11v4l-2 5-1-4 2-15z" fill="#3E78AD"/>
<path transform="translate(390,442)" d="m0 0h32v1l-30 1-1 15h-1v-15h-9v-1z" fill="#2D655A"/>
<path transform="translate(408,897)" d="m0 0h8l3 3v2l-5 1-7-2v-3z" fill="#A7B0B8"/>
<path transform="translate(380,402)" d="m0 0h1v38l-3-2z" fill="#3C74B1"/>
<path transform="translate(1774,501)" d="m0 0h13l8 2v1h-20z" fill="#2A6053"/>
<path transform="translate(1103,488)" d="m0 0h2v6l-1 1h-7l-2-3z" fill="#275A4D"/>
<path transform="translate(925,333)" d="m0 0 2 1 1 16-1 7h-1l-1-9-1-1v-10z" fill="#2E6963"/>
<path transform="translate(1594,447)" d="m0 0h11l12 2-3 3-14-2v-2h-6z" fill="#498C9E"/>
<path transform="translate(1436,205)" d="m0 0 2 4 14 11 2 3-5-2-12-10-4-3v-2z" fill="#417880"/>
<path transform="translate(1449,173)" d="m0 0 1 3-7 17h-3l2-7 4-8z" fill="#5C8791"/>
<path transform="translate(523,368)" d="m0 0 5 5 1 3v10l-2-4-4-11z" fill="#99ABB0"/>
<path transform="translate(1397,180)" d="m0 0 1 2 4 1 4 4 9 5-3 2-14-9-2-2z" fill="#6D94AD"/>
<path transform="translate(1061,406)" d="m0 0 3 1v4l-5 2-5-1v-2z" fill="#275A4D"/>
<path transform="translate(1398,159)" d="m0 0h1l-1 12-1 9-4-3 3-11z" fill="#6292A0"/>
<path transform="translate(883,392)" d="m0 0 6 2 3-2-2 5-7 15-1-3 5-11z" fill="#4E9498"/>
<path transform="translate(1591,877)" d="m0 0h1l-1 10-3 9-3 1 3-10 2-9z" fill="#D3C5BC"/>
<path transform="translate(929,242)" d="m0 0 10 1 2-1-1 6 1 4-3-1v-6h-8z" fill="#356C8D"/>
<path transform="translate(901,389)" d="m0 0 4 1 1 5-2 4-3-2z" fill="#275A4D"/>
<path transform="translate(1368,158)" d="m0 0 3 2-8 11-3-1 4-6z" fill="#7AA2AA"/>
<path transform="translate(1014,501)" d="m0 0 7 1v4h-7l-1-4z" fill="#275A4D"/>
<path transform="translate(1008,458)" d="m0 0 3 1 1 7-2 2h-3z" fill="#275A4D"/>
<path transform="translate(1273,775)" d="m0 0h1l1 11 6 3v1l-7-1-2-2v-8z" fill="#D3C7BF"/>
<path transform="translate(939,299)" d="m0 0h6l1 1v6l-6 8-1-2 4-6v-5z" fill="#3C74B1"/>
<path transform="translate(1051,493)" d="m0 0h6l-2 4-7 1 2-4z" fill="#275A4D"/>
<path transform="translate(1381,169)" d="m0 0 5 2 9 7 1-2v3l-6-1-9-8z" fill="#4A7A94"/>
<path transform="translate(969,280)" d="m0 0 7 1-4 2-3 4-2 4v-8z" fill="#326782"/>
<path transform="translate(364,900)" d="m0 0h8l6 2v1h-8l-6-1z" fill="#4D9399"/>
<path transform="translate(372,887)" d="m0 0 7 2-4 6-4 1 2-3z" fill="#BBB0AC"/>
<path transform="translate(969,292)" d="m0 0 4 5 6 7-5-2-6-3 2-2z" fill="#346A8B"/>
<path transform="translate(1114,474)" d="m0 0 2 1v4h-8l1-3z" fill="#79CFBD"/>
<path transform="translate(538,429)" d="m0 0h2l1 11h-3z" fill="#7B9B9F"/>
<path transform="translate(1742,457)" d="m0 0h2v2h6v2h-9l-3-1 1-2z" fill="#C7BBB4"/>
<path transform="translate(1472,241)" d="m0 0 5 1 6 2-1 3-11-4z" fill="#88C8D7"/>
<path transform="translate(1413,193)" d="m0 0 5 2 8 5-2 2-11-8z" fill="#5388A8"/>
<path transform="translate(943,230)" d="m0 0 2 2-1 5-2 5-3 1 3-9z" fill="#336984"/>
</svg>
