<?xml version="1.0" standalone="no"?>
<!DOCTYPE svg PUBLIC "-//W3C//DTD SVG 20010904//EN"
 "http://www.w3.org/TR/2001/REC-SVG-20010904/DTD/svg10.dtd">
<svg version="1.0" xmlns="http://www.w3.org/2000/svg"
 width="300.000000pt" height="148.000000pt" viewBox="0 0 300.000000 148.000000"
 preserveAspectRatio="xMidYMid meet">
<metadata>
Created by potrace 1.10, written by Peter Selinger 2001-2011
</metadata>
<g transform="translate(0.000000,148.000000) scale(0.100000,-0.100000)"
fill="#000000" stroke="none">
<path d="M2262 1290 c0 -37 4 -50 15 -50 8 0 11 5 8 11 -4 5 -4 21 -1 35 5 19
13 24 40 24 30 0 35 -4 41 -29 3 -15 5 -34 3 -41 -2 -7 2 -14 8 -17 7 -2 11
17 10 57 l-1 60 -61 0 -62 0 0 -50z"/>
<path d="M616 1282 c-27 -6 -30 -12 -33 -50 -1 -23 1 -42 5 -42 4 0 22 9 41
21 30 18 35 19 50 5 10 -9 32 -19 49 -22 44 -9 40 -26 -12 -49 -43 -19 -50
-38 -22 -57 17 -12 -44 -21 -67 -10 -18 9 -19 11 -4 11 24 1 22 38 -3 46 -11
3 -20 11 -20 16 0 5 -7 9 -15 9 -11 0 -15 -11 -15 -38 0 -31 -5 -41 -25 -50
-48 -22 -78 -122 -95 -315 -10 -106 -9 -121 7 -150 10 -17 18 -33 18 -34 0 -1
12 -4 28 -8 18 -5 27 -3 27 5 0 7 7 18 16 24 22 16 31 76 26 164 -3 51 -8 72
-18 72 -9 0 -14 18 -17 58 -2 31 -1 -13 1 -98 4 -134 3 -157 -11 -168 -29 -24
-37 -4 -37 91 0 125 37 289 74 325 24 25 28 25 61 13 31 -11 39 -10 61 4 14 9
29 26 34 39 9 24 33 39 44 29 3 -4 6 -18 6 -32 0 -15 11 -42 24 -62 15 -22 24
-48 23 -72 -1 -39 25 -77 52 -77 9 0 41 20 71 45 30 25 60 45 67 45 17 0 25
-17 18 -39 -9 -28 -110 -92 -155 -98 -35 -5 -40 -3 -54 25 -9 17 -16 40 -16
50 0 11 -6 25 -14 31 -12 10 -12 4 0 -44 8 -30 12 -60 9 -65 -8 -14 32 -50 56
-50 61 0 219 112 219 155 0 12 7 26 16 29 13 5 13 9 -3 31 -11 15 -24 22 -33
18 -8 -3 -26 -5 -39 -4 -32 1 -83 -31 -116 -75 -35 -45 -48 -31 -39 43 6 50 5
53 -20 64 -23 11 -26 18 -25 53 3 58 -8 84 -42 101 -31 17 -39 35 -14 35 19 0
19 11 2 34 -15 20 -90 30 -141 18z m109 -41 c3 -5 1 -12 -4 -15 -12 -8 -41 3
-41 15 0 12 37 12 45 0z"/>
<path d="M1980 1170 c0 -83 3 -109 13 -107 7 1 11 -8 10 -24 -1 -19 5 -30 23
-38 28 -12 31 -5 7 21 -26 29 -10 31 65 9 76 -23 96 -26 70 -10 -15 8 -18 25
-18 99 0 53 -4 90 -10 90 -11 0 -13 -21 -10 -112 2 -62 -13 -79 -24 -27 -9 46
-7 89 4 89 5 0 7 7 4 15 -4 8 -12 15 -18 15 -7 0 -22 9 -33 19 l-21 19 -23
-76 -24 -77 -3 67 c-2 42 2 77 10 91 l13 24 90 -22 c51 -13 94 -19 99 -14 6 5
4 10 -5 13 -15 5 -205 46 -214 46 -3 0 -5 -49 -5 -110z m115 -59 l0 -67 -40
15 c-22 8 -42 16 -44 17 -3 3 27 101 36 116 2 4 14 3 26 -3 20 -9 22 -17 22
-78z"/>
<path d="M1295 1249 c-37 -21 -55 -53 -55 -96 l0 -43 47 0 c46 0 54 11 10 16
-12 1 -25 3 -29 3 -15 2 -8 31 7 31 9 0 21 11 27 25 10 21 17 24 60 23 43 0
49 -3 55 -26 3 -14 1 -33 -5 -43 -14 -22 5 -39 19 -18 15 22 2 81 -24 106 -27
28 -83 38 -112 22z"/>
<path d="M2418 1237 c6 -7 13 -42 15 -77 l3 -65 2 78 c2 65 0 77 -14 77 -12 0
-14 -3 -6 -13z"/>
<path d="M2191 1098 c0 -67 3 -96 9 -83 12 28 12 173 0 180 -6 4 -10 -31 -9
-97z"/>
<path d="M2365 1145 c0 -25 5 -45 10 -45 6 0 9 19 7 45 -2 25 -7 45 -11 45 -3
0 -6 -20 -6 -45z"/>
<path d="M1380 1150 c0 -25 -8 -25 -33 -2 -19 16 -20 16 -9 -4 6 -12 20 -24
30 -26 14 -4 18 1 20 23 1 16 0 29 -3 29 -3 0 -5 -9 -5 -20z"/>
<path d="M1180 1100 c-8 -6 -33 -15 -55 -21 -37 -10 -54 -23 -55 -41 0 -4 7
-5 15 -2 8 4 15 2 15 -3 0 -9 23 -10 68 -5 6 1 12 13 12 26 0 13 5 26 12 28 6
2 9 9 7 16 -3 8 -9 8 -19 2z"/>
<path d="M1334 1085 c-4 -8 -16 -15 -29 -15 -44 0 -84 -22 -123 -68 -96 -115
-130 -249 -69 -271 33 -12 73 6 112 52 38 45 43 57 20 57 -8 0 -15 -5 -15 -11
0 -5 -4 -8 -8 -5 -4 2 -16 -8 -27 -24 -20 -30 -54 -45 -68 -31 -5 5 -4 12 2
15 17 11 13 26 -4 20 -8 -4 -15 -1 -15 5 0 6 8 11 17 11 13 0 14 3 5 12 -9 9
-3 27 25 77 55 100 91 135 72 69 -5 -18 -9 -34 -9 -35 0 -1 13 -16 29 -32 34
-35 75 -35 103 -1 15 18 24 21 58 15 22 -4 40 -12 40 -18 0 -5 3 -7 6 -4 4 4
-10 27 -31 52 -20 25 -34 51 -31 58 4 7 13 22 20 35 l13 23 34 -28 c26 -22 32
-24 26 -9 -5 12 -3 22 4 27 8 5 -2 13 -27 24 -35 15 -40 15 -50 0 -7 -9 -14
-12 -15 -7 -2 5 -16 12 -32 16 -20 5 -29 2 -33 -9z m54 -50 c-6 -14 -17 -25
-23 -25 -8 0 -11 -14 -9 -38 3 -46 -3 -57 -35 -65 -25 -6 -81 24 -81 45 0 27
42 66 85 78 25 7 48 17 51 21 12 21 23 7 12 -16z"/>
<path d="M2438 960 c4 -110 4 -112 -16 -101 -28 15 -32 14 -32 -10 0 -13 -5
-19 -12 -17 -7 3 -37 13 -65 22 -42 14 -53 22 -53 39 0 18 -14 27 -85 53 l-85
32 0 -65 c0 -42 4 -65 13 -68 9 -3 275 -28 410 -38 l28 -2 2 128 c2 121 1 127
-18 127 -11 0 -36 3 -55 6 l-35 6 3 -112z m66 44 c9 -24 7 -127 -4 -144 -13
-21 -21 -8 -24 41 -6 85 11 148 28 103z m-299 -115 c5 -5 -5 -9 -28 -9 -27 0
-37 4 -37 16 0 13 6 15 28 9 15 -3 31 -11 37 -16z"/>
<path d="M2565 935 c0 -69 3 -125 8 -125 4 0 7 56 7 125 0 69 -3 125 -7 125
-5 0 -8 -56 -8 -125z"/>
<path d="M1502 1043 c2 -5 18 -38 36 -75 17 -36 36 -69 42 -73 6 -3 8 -10 5
-15 -3 -5 -1 -11 5 -15 11 -7 14 -134 2 -151 -10 -15 -52 -28 -52 -16 0 5 -8
12 -19 15 -13 3 -20 18 -25 51 -4 25 -11 44 -15 42 -13 -8 0 -69 21 -98 13
-20 28 -28 48 -28 19 0 36 9 50 28 23 28 23 56 4 163 l-6 36 46 7 c25 4 50 4
56 1 15 -9 12 -78 -5 -102 -14 -20 -14 -22 6 -28 11 -4 23 -5 25 -2 3 3 8 39
11 80 5 70 4 76 -17 87 -26 14 -83 6 -100 -15 -20 -24 -27 -18 -39 29 -7 30
-21 51 -40 65 -30 21 -46 27 -39 14z"/>
<path d="M569 895 c-3 -30 -1 -53 5 -57 6 -4 55 -8 109 -8 108 0 109 1 82 70
l-13 35 -1 -31 c-1 -38 -14 -44 -85 -44 -61 0 -83 14 -88 55 -3 23 -5 18 -9
-20z"/>
<path d="M1510 923 c-8 -2 -21 -7 -29 -9 -9 -3 -11 -8 -5 -14 12 -12 74 6 74
21 0 10 -16 11 -40 2z"/>
<path d="M1272 827 c-8 -10 -9 -17 -3 -21 6 -4 4 -20 -5 -42 -18 -44 -21 -119
-4 -139 10 -12 39 -15 144 -15 134 0 216 15 224 40 3 9 -1 11 -14 5 -62 -25
-118 -35 -201 -35 -81 0 -96 3 -114 21 -18 18 -20 28 -13 87 7 74 11 85 25 77
5 -4 9 -1 9 4 0 6 -6 11 -14 11 -8 0 -16 5 -18 11 -2 7 -8 6 -16 -4z"/>
<path d="M1892 798 c2 -19 10 -24 42 -26 33 -3 37 -6 33 -25 -7 -32 -97 -389
-103 -409 -4 -12 0 -18 10 -18 17 0 17 1 76 240 23 96 44 181 46 188 2 8 12
10 31 5 16 -3 36 -6 45 -5 19 1 24 -12 33 -83 4 -27 13 -84 20 -125 8 -41 16
-88 18 -105 12 -80 20 -105 34 -105 12 0 13 9 9 43 -14 89 -38 235 -51 297 -7
36 -12 66 -11 67 1 1 18 -2 37 -7 55 -15 90 -20 165 -27 l71 -6 -8 -31 c-7
-27 -20 -98 -35 -191 -2 -16 -16 -91 -29 -166 -29 -162 -29 -149 -10 -149 8 0
15 4 15 8 0 5 9 57 21 118 11 60 29 159 41 219 11 61 21 117 23 125 2 8 4 28
4 43 1 28 1 28 63 25 l62 -3 37 -185 c21 -102 45 -222 55 -267 11 -55 21 -83
30 -83 18 0 18 -4 -11 141 -14 68 -28 138 -31 154 -3 17 -9 46 -14 65 -5 19
-12 55 -15 79 -3 23 -10 54 -16 68 -14 36 -13 36 46 29 53 -6 55 -5 55 17 0
22 -6 24 -132 41 -73 9 -141 20 -151 22 -11 4 -17 1 -15 -8 2 -9 -13 -14 -56
-16 -44 -2 -57 0 -53 10 2 7 10 12 16 11 6 -2 11 2 11 7 0 6 -3 10 -7 10 -5 0
-48 7 -98 15 -49 8 -139 15 -198 15 -107 0 -108 0 -105 -22z m303 -39 c61 -14
156 -25 245 -29 156 -7 169 -11 50 -14 -97 -3 -321 26 -460 58 l-65 16 65 -5
c36 -2 110 -14 165 -26z"/>
<path d="M787 774 c-7 -7 -2 -99 9 -169 3 -16 7 -112 11 -212 6 -169 5 -183
-12 -189 -10 -4 -25 -3 -34 3 -14 9 -17 48 -24 274 -8 253 -13 289 -41 289
-37 -1 -41 -15 -51 -200 -3 -63 -8 -135 -10 -160 -3 -25 -7 -79 -11 -120 -6
-77 -13 -90 -52 -90 -38 0 -39 7 -7 305 2 22 2 32 -1 23 -3 -10 -12 -18 -20
-18 -8 0 -14 -7 -14 -15 0 -8 -5 -61 -10 -117 -6 -57 -12 -124 -14 -149 l-5
-46 73 0 74 0 6 81 c5 61 24 432 26 489 0 4 7 7 15 7 12 0 15 -40 14 -281 0
-155 3 -284 6 -287 3 -3 35 -7 70 -7 l65 -2 -6 121 c-9 190 -32 444 -41 461
-5 9 -12 12 -16 9z"/>
<path d="M1702 753 c27 -32 28 -53 3 -122 -14 -38 -25 -77 -25 -89 0 -20 -40
-137 -62 -179 -14 -29 -41 -29 -68 -1 -28 30 -26 44 21 123 73 123 80 137 74
143 -7 8 -7 8 -79 -117 -63 -111 -64 -115 -48 -137 9 -12 29 -29 44 -38 55
-33 58 -28 125 152 33 92 64 182 68 200 8 40 -15 82 -47 82 -19 0 -20 -2 -6
-17z"/>
<path d="M1215 578 c-145 -126 -104 -332 84 -422 48 -23 64 -25 150 -23 85 2
102 6 144 31 59 35 102 77 126 125 25 48 33 137 16 178 -7 17 -11 34 -7 37 3
3 1 6 -5 6 -7 0 -9 -28 -6 -83 6 -92 -2 -118 -59 -183 -101 -115 -316 -121
-434 -13 -38 36 -68 110 -68 170 -1 58 25 111 80 166 22 22 31 43 19 43 -2 0
-20 -14 -40 -32z"/>
<path d="M442 506 c-25 -56 -18 -75 28 -74 22 1 29 7 33 27 7 34 3 37 -27 17
l-25 -16 10 30 c20 55 4 68 -19 16z"/>
<path d="M1570 265 c-7 -14 -19 -25 -27 -25 -7 0 -13 -6 -14 -12 -1 -7 -5 -2
-9 12 l-8 25 -1 -27 c-1 -18 4 -28 13 -28 16 0 72 67 64 75 -3 3 -11 -6 -18
-20z"/>
<path d="M530 150 c0 -8 120 -29 129 -23 3 2 0 7 -5 12 -12 12 -124 22 -124
11z"/>
<path d="M730 141 c0 -5 32 -11 70 -13 51 -2 70 0 70 10 0 8 -21 12 -70 12
-38 0 -70 -4 -70 -9z"/>
</g>
</svg>
